# xmcd
#
# Track frame offsets: 
#        150
#        19335
#        40639
#        67297
#        87322
#        110237
#        130638
#        153772
#        175242
#        210008
#        229329
#        250546
#
# Disc length: 3528 seconds
#
# Revision: 0
# Processed by: cddbd v1.5.2PL0 Copyright (c) Steve Scherf et al.
# Submitted via: ExactAudioCopy v1.0b4
#
DISCID=970dc60c
DTITLE=Uirá Cabral and Friends - Second Hand Gear
DYEAR=2051
DGENRE=Blues
TTITLE0=Boogie Baby
TTITLE1=Pretty Baby
TTITLE2=I Want A Woman
TTITLE3=Fun To Visit
TTITLE4=Oh Baby
TTITLE5=Cloud Cover
TTITLE6=I've Got My Eyes On You
TTITLE7=Work It Out
TTITLE8=Second Hand Gear
TTITLE9=Bye Bye Baby
TTITLE10=Pawnshop Bound
TTITLE11=On Fire
EXTD=
EXTT0=
EXTT1=
EXTT2=
EXTT3=
EXTT4=
EXTT5=
EXTT6=
EXTT7=
EXTT8=
EXTT9=
EXTT10=
EXTT11=
PLAYORDER=
